<svg width="1256" height="615" viewBox="0 0 1256 615" fill="none" xmlns="http://www.w3.org/2000/svg">
<path d="M0 147.897C0 90.3455 70.4564 62.8369 127.357 71.4687C195.145 81.752 227.53 19.4262 296 20.513C361.06 21.5457 390.537 74.4556 455.543 71.4687C523.341 68.3535 548.172 2.94315 616 0.696851C689.37 -1.73299 718.362 69.0933 791.734 71.4687C860.038 73.68 891.73 17.3185 960 20.513C1019.19 23.2827 1044.69 73.2412 1103.91 71.4687C1106.88 71.3797 1109.9 71.1501 1112.96 70.793C1177.67 63.231 1256 96.416 1256 161.571V539.071C1256 579.006 1225.82 612.547 1185.9 613.852C1151.82 614.967 1111.51 614.601 1079.9 609.334C1021.99 599.685 994.616 564.083 936 564.04C877.246 563.996 850.483 608.496 791.734 609.334C730.183 610.212 701.541 565.491 640 564.04C573.163 562.464 541.063 610.612 474.22 609.334C411.739 608.14 382.491 564.444 320 564.04C256.102 563.627 225.392 600.455 162.043 609.334C134.962 613.129 101.065 613.648 71.2842 613.012C30.8813 612.148 0 578.347 0 537.935V147.897Z" fill="#1C1A1E"/>
</svg>
