<svg width="1256" height="615" viewBox="0 0 1256 615" fill="none" xmlns="http://www.w3.org/2000/svg">
<path d="M0 147.897C0 90.345 70.4564 62.8365 127.357 71.4682C195.145 81.7515 227.53 19.4257 296 20.5125C361.06 21.5452 390.537 74.4551 455.543 71.4682C523.341 68.353 548.172 2.94267 616 0.696363C689.37 -1.73348 718.362 69.0928 791.734 71.4682C860.038 73.6795 891.73 17.318 960 20.5125C1019.19 23.2822 1044.69 73.2408 1103.91 71.4682C1106.88 71.3792 1109.9 71.1496 1112.96 70.7925C1177.67 63.2306 1256 96.4155 1256 161.571V539.071C1256 579.006 1225.82 612.546 1185.9 613.852C1151.82 614.966 1111.51 614.6 1079.9 609.333C1021.99 599.685 994.616 564.083 936 564.039C877.246 563.996 850.483 608.495 791.734 609.333C730.183 610.211 701.541 565.491 640 564.039C573.163 562.463 541.063 610.611 474.22 609.333C411.739 608.139 382.491 564.443 320 564.039C256.102 563.626 225.392 600.455 162.043 609.333C134.962 613.129 101.065 613.648 71.2842 613.011C30.8813 612.148 0 578.347 0 537.934V147.897Z" fill="#1C1A1E"/>
</svg>
