<svg width="24" height="25" viewBox="0 0 24 25" fill="none" xmlns="http://www.w3.org/2000/svg">
<path d="M23.7149 2.22478C22.6605 1.48727 19.4017 -0.325872 15.778 2.35524C14.5959 1.97983 13.3259 1.77482 12 1.77482C10.6741 1.77482 9.40408 1.97983 8.22194 2.35524C4.59832 -0.325872 1.33945 1.48461 0.285115 2.22478C0.0667924 2.37654 -0.0397064 2.64545 0.013543 2.90637L1.2436 8.81173C0.894821 9.78886 0.705786 10.8325 0.705786 11.9135C0.705786 14.4748 1.76279 16.8151 3.50937 18.599C3.89809 19.033 5.81773 21.2295 6.82415 23.3063C7.04779 23.7669 7.51106 24.0624 8.02492 24.0624H9.36678C10.1016 24.0624 10.698 23.466 10.698 22.7311V21.9883C11.124 22.0336 11.5607 22.0549 12 22.0549C12.4393 22.0549 12.8733 22.0309 13.3019 21.9883V22.7311C13.3019 23.466 13.8983 24.0624 14.6331 24.0624H15.975C16.4862 24.0624 16.9521 23.7668 17.1758 23.3063C18.1795 21.2322 20.1018 19.0357 20.4906 18.599C22.2345 16.8151 23.2942 14.4748 23.2942 11.9135C23.2942 10.8325 23.1051 9.78886 22.7563 8.81173L23.9864 2.90637C24.0397 2.64545 23.9332 2.37654 23.7149 2.22478ZM7.27147 8.90758V7.32607C7.27147 6.95865 7.56964 6.66045 7.93709 6.66045H8.00895C8.37639 6.66045 8.67456 6.95865 8.67456 7.32607V8.90758C8.67456 9.275 8.37639 9.5732 8.00895 9.5732H7.93709C7.56964 9.57317 7.27147 9.27766 7.27147 8.90758ZM12 17.6858C9.49993 17.6858 7.47379 16.1176 7.47379 14.1819C7.47379 12.2463 9.49993 10.6781 12 10.6781C14.5001 10.6781 16.5262 12.2463 16.5262 14.1819C16.5262 16.1176 14.5001 17.6858 12 17.6858ZM16.7898 8.90758C16.7898 9.275 16.4916 9.5732 16.1242 9.5732H16.0523C15.6849 9.5732 15.3867 9.27503 15.3867 8.90758V7.32607C15.3867 6.95865 15.6849 6.66045 16.0523 6.66045H16.1242C16.4916 6.66045 16.7898 6.95865 16.7898 7.32607V8.90758Z" fill="white"/>
<path d="M10.2081 15.143C10.6992 15.143 11.0973 14.7127 11.0973 14.1819C11.0973 13.651 10.6992 13.2207 10.2081 13.2207C9.71697 13.2207 9.31885 13.651 9.31885 14.1819C9.31885 14.7127 9.71697 15.143 10.2081 15.143Z" fill="white"/>
<path d="M13.7919 15.143C14.283 15.143 14.6811 14.7127 14.6811 14.1819C14.6811 13.651 14.283 13.2207 13.7919 13.2207C13.3007 13.2207 12.9026 13.651 12.9026 14.1819C12.9026 14.7127 13.3007 15.143 13.7919 15.143Z" fill="white"/>
</svg>
