<svg width="198" height="25" viewBox="0 0 198 25" fill="none" xmlns="http://www.w3.org/2000/svg">
<g clip-path="url(#clip0_55_137)">
<path d="M23.7149 2.22478C22.6605 1.48727 19.4017 -0.325872 15.778 2.35524C14.5959 1.97983 13.3259 1.77482 12 1.77482C10.6741 1.77482 9.40408 1.97983 8.22194 2.35524C4.59832 -0.325872 1.33945 1.48461 0.285115 2.22478C0.0667924 2.37654 -0.0397064 2.64545 0.013543 2.90637L1.2436 8.81173C0.894821 9.78886 0.705786 10.8325 0.705786 11.9135C0.705786 14.4748 1.76279 16.8151 3.50937 18.599C3.89809 19.033 5.81773 21.2295 6.82415 23.3063C7.04779 23.7669 7.51106 24.0624 8.02492 24.0624H9.36678C10.1016 24.0624 10.698 23.466 10.698 22.7311V21.9883C11.124 22.0336 11.5607 22.0549 12 22.0549C12.4393 22.0549 12.8733 22.0309 13.3019 21.9883V22.7311C13.3019 23.466 13.8983 24.0624 14.6331 24.0624H15.975C16.4862 24.0624 16.9521 23.7668 17.1758 23.3063C18.1795 21.2322 20.1018 19.0357 20.4906 18.599C22.2345 16.8151 23.2942 14.4748 23.2942 11.9135C23.2942 10.8325 23.1051 9.78886 22.7563 8.81173L23.9864 2.90637C24.0397 2.64545 23.9332 2.37654 23.7149 2.22478ZM7.27147 8.90758V7.32607C7.27147 6.95865 7.56964 6.66045 7.93709 6.66045H8.00895C8.37639 6.66045 8.67456 6.95865 8.67456 7.32607V8.90758C8.67456 9.275 8.37639 9.5732 8.00895 9.5732H7.93709C7.56964 9.57317 7.27147 9.27766 7.27147 8.90758ZM12 17.6858C9.49993 17.6858 7.47379 16.1176 7.47379 14.1819C7.47379 12.2463 9.49993 10.6781 12 10.6781C14.5001 10.6781 16.5262 12.2463 16.5262 14.1819C16.5262 16.1176 14.5001 17.6858 12 17.6858ZM16.7898 8.90758C16.7898 9.275 16.4916 9.5732 16.1242 9.5732H16.0523C15.6849 9.5732 15.3867 9.27503 15.3867 8.90758V7.32607C15.3867 6.95865 15.6849 6.66045 16.0523 6.66045H16.1242C16.4916 6.66045 16.7898 6.95865 16.7898 7.32607V8.90758Z" fill="white"/>
<path d="M10.2081 15.143C10.6992 15.143 11.0973 14.7127 11.0973 14.1819C11.0973 13.651 10.6992 13.2207 10.2081 13.2207C9.71697 13.2207 9.31885 13.651 9.31885 14.1819C9.31885 14.7127 9.71697 15.143 10.2081 15.143Z" fill="white"/>
<path d="M13.7919 15.143C14.283 15.143 14.6811 14.7127 14.6811 14.1819C14.6811 13.651 14.283 13.2207 13.7919 13.2207C13.3007 13.2207 12.9026 13.651 12.9026 14.1819C12.9026 14.7127 13.3007 15.143 13.7919 15.143Z" fill="white"/>
</g>
<path d="M45.82 5C47.0733 5 48.1533 5.21333 49.06 5.64C49.98 6.06667 50.68 6.67333 51.16 7.46C51.64 8.23333 51.88 9.14 51.88 10.18C51.88 11.2067 51.64 12.1133 51.16 12.9C50.68 13.6733 49.98 14.2733 49.06 14.7C48.1533 15.1267 47.0733 15.34 45.82 15.34H39.32V12.02H45.56C46.2267 12.02 46.7467 11.86 47.12 11.54C47.4933 11.2067 47.68 10.7533 47.68 10.18C47.68 9.59333 47.4933 9.14 47.12 8.82C46.7467 8.48667 46.2267 8.32 45.56 8.32H39.68L41.54 6.4V20H37.4V5H45.82ZM53.6891 5H57.8291V20H53.6891V5ZM75.9827 13.5C75.9427 14.4067 75.756 15.2733 75.4227 16.1C75.1027 16.9133 74.6293 17.64 74.0027 18.28C73.3893 18.92 72.616 19.42 71.6827 19.78C70.7627 20.14 69.6893 20.32 68.4627 20.32C67.2893 20.32 66.1893 20.1533 65.1627 19.82C64.136 19.4733 63.2293 18.9667 62.4427 18.3C61.6693 17.6333 61.0627 16.8133 60.6227 15.84C60.196 14.8667 59.9827 13.7533 59.9827 12.5C59.9827 11.2467 60.2027 10.1333 60.6427 9.16C61.0827 8.18667 61.696 7.36667 62.4827 6.7C63.2827 6.03333 64.2027 5.53333 65.2427 5.2C66.296 4.85333 67.4427 4.68 68.6827 4.68C70.336 4.68 71.7627 4.93333 72.9627 5.44C74.1627 5.94667 75.1293 6.64 75.8627 7.52C76.596 8.4 77.0693 9.42 77.2827 10.58H73.1027C72.9693 10.0733 72.696 9.64 72.2827 9.28C71.8827 8.90667 71.376 8.62667 70.7627 8.44C70.1627 8.24 69.476 8.14 68.7027 8.14C67.7693 8.14 66.9627 8.30667 66.2827 8.64C65.6027 8.96 65.076 9.44667 64.7027 10.1C64.3293 10.74 64.1427 11.54 64.1427 12.5C64.1427 13.4733 64.3427 14.2933 64.7427 14.96C65.1427 15.6267 65.7093 16.1267 66.4427 16.46C67.1893 16.7933 68.0627 16.96 69.0627 16.96C70.036 16.96 70.896 16.8267 71.6427 16.56C72.3893 16.28 72.9827 15.8733 73.4227 15.34C73.876 14.8067 74.136 14.1667 74.2027 13.42L75.9827 13.5ZM69.4627 15.16V12.24H77.4227V20H74.4827L73.9027 14.06L74.6827 15.16H69.4627ZM95.26 13.5C95.22 14.4067 95.0333 15.2733 94.7 16.1C94.38 16.9133 93.9067 17.64 93.28 18.28C92.6667 18.92 91.8933 19.42 90.96 19.78C90.04 20.14 88.9667 20.32 87.74 20.32C86.5667 20.32 85.4667 20.1533 84.44 19.82C83.4133 19.4733 82.5067 18.9667 81.72 18.3C80.9467 17.6333 80.34 16.8133 79.9 15.84C79.4733 14.8667 79.26 13.7533 79.26 12.5C79.26 11.2467 79.48 10.1333 79.92 9.16C80.36 8.18667 80.9733 7.36667 81.76 6.7C82.56 6.03333 83.48 5.53333 84.52 5.2C85.5733 4.85333 86.72 4.68 87.96 4.68C89.6133 4.68 91.04 4.93333 92.24 5.44C93.44 5.94667 94.4067 6.64 95.14 7.52C95.8733 8.4 96.3467 9.42 96.56 10.58H92.38C92.2467 10.0733 91.9733 9.64 91.56 9.28C91.16 8.90667 90.6533 8.62667 90.04 8.44C89.44 8.24 88.7533 8.14 87.98 8.14C87.0467 8.14 86.24 8.30667 85.56 8.64C84.88 8.96 84.3533 9.44667 83.98 10.1C83.6067 10.74 83.42 11.54 83.42 12.5C83.42 13.4733 83.62 14.2933 84.02 14.96C84.42 15.6267 84.9867 16.1267 85.72 16.46C86.4667 16.7933 87.34 16.96 88.34 16.96C89.3133 16.96 90.1733 16.8267 90.92 16.56C91.6667 16.28 92.26 15.8733 92.7 15.34C93.1533 14.8067 93.4133 14.1667 93.48 13.42L95.26 13.5ZM88.74 15.16V12.24H96.7V20H93.76L93.18 14.06L93.96 15.16H88.74ZM102.945 20V12.7H107.105V20H102.945ZM95.9052 5H100.505L105.945 11.92H104.085L109.505 5H114.105L106.345 14.86L103.685 14.9L95.9052 5ZM113.888 15.08H118.108C118.175 15.4933 118.368 15.8533 118.688 16.16C119.008 16.4667 119.435 16.7067 119.968 16.88C120.515 17.04 121.155 17.12 121.888 17.12C122.901 17.12 123.701 16.9933 124.288 16.74C124.875 16.4733 125.168 16.0867 125.168 15.58C125.168 15.1933 125.001 14.8933 124.668 14.68C124.335 14.4667 123.695 14.3133 122.748 14.22L119.948 13.96C117.881 13.7733 116.381 13.3067 115.448 12.56C114.515 11.8 114.048 10.78 114.048 9.5C114.048 8.46 114.348 7.58 114.948 6.86C115.561 6.14 116.415 5.6 117.508 5.24C118.615 4.86667 119.901 4.68 121.368 4.68C122.808 4.68 124.088 4.88667 125.208 5.3C126.328 5.7 127.215 6.27333 127.868 7.02C128.535 7.76667 128.895 8.63333 128.948 9.62H124.748C124.695 9.26 124.521 8.95333 124.228 8.7C123.948 8.43333 123.561 8.23333 123.068 8.1C122.575 7.95333 121.981 7.88 121.288 7.88C120.355 7.88 119.615 8.00667 119.068 8.26C118.521 8.5 118.248 8.86 118.248 9.34C118.248 9.68667 118.408 9.96667 118.728 10.18C119.061 10.3933 119.655 10.54 120.508 10.62L123.488 10.92C124.915 11.0533 126.055 11.2867 126.908 11.62C127.761 11.94 128.381 12.3867 128.768 12.96C129.155 13.5333 129.348 14.2467 129.348 15.1C129.348 16.1533 129.035 17.0733 128.408 17.86C127.781 18.6333 126.901 19.24 125.768 19.68C124.635 20.1067 123.315 20.32 121.808 20.32C120.261 20.32 118.895 20.1067 117.708 19.68C116.535 19.24 115.615 18.6267 114.948 17.84C114.281 17.04 113.928 16.12 113.888 15.08ZM135.596 6.82H139.756V20H135.596V6.82ZM129.876 5H145.476V8.68H129.876V5ZM147.781 17.12V13.78H158.121V17.12H147.781ZM155.761 5L162.581 20H158.161L152.441 6.76H153.641L147.901 20H143.481L150.301 5H155.761ZM166.862 11.56H172.322C172.988 11.56 173.508 11.4067 173.882 11.1C174.255 10.7933 174.442 10.3667 174.442 9.82C174.442 9.26 174.255 8.83333 173.882 8.54C173.508 8.23333 172.988 8.08 172.322 8.08H166.282L168.142 6.1V20H164.002V5H172.902C174.048 5 175.048 5.20667 175.902 5.62C176.755 6.02 177.422 6.58 177.902 7.3C178.382 8.00667 178.622 8.84667 178.622 9.82C178.622 10.7667 178.382 11.6 177.902 12.32C177.422 13.04 176.755 13.6 175.902 14C175.048 14.4 174.048 14.6 172.902 14.6H166.862V11.56ZM169.102 12.98H173.762L179.142 20H174.342L169.102 12.98ZM180.994 20V5H185.114V16.7L184.014 15.84L192.514 5H196.894L184.734 20H180.994ZM188.154 12.84L191.194 10.32L197.094 20H192.394L188.154 12.84Z" fill="white"/>
<defs>
<clipPath id="clip0_55_137">
<rect width="24" height="24" fill="white" transform="translate(0 0.5)"/>
</clipPath>
</defs>
</svg>
